<?xml version="1.0" standalone="no"?>
<!DOCTYPE svg PUBLIC "-//W3C//DTD SVG 20010904//EN"
 "http://www.w3.org/TR/2001/REC-SVG-20010904/DTD/svg10.dtd">
<svg version="1.0" xmlns="http://www.w3.org/2000/svg"
 width="512.000000pt" height="512.000000pt" viewBox="0 0 512.000000 512.000000"
 preserveAspectRatio="xMidYMid meet">

<g transform="translate(0.000000,512.000000) scale(0.100000,-0.100000)"
fill="#000000" stroke="none">
<path d="M768 3079 c-21 -12 -24 -62 -4 -78 9 -8 150 -10 506 -9 481 3 493 3
506 23 11 16 11 25 1 45 l-13 25 -489 2 c-321 2 -496 -1 -507 -8z"/>
<path d="M780 2727 c-32 -16 -40 -65 -14 -84 14 -10 92 -13 344 -13 282 0 329
2 348 16 31 21 26 64 -8 81 -18 9 -106 13 -335 13 -229 0 -317 -4 -335 -13z"/>
<path d="M2461 2663 c-21 -18 -21 -18 -21 -668 0 -357 0 -658 0 -667 0 -42 23
-48 189 -48 140 0 160 2 174 18 16 17 17 79 17 685 l0 666 -22 15 c-35 25
-307 23 -337 -1z"/>
<path d="M3170 2664 c-19 -8 -47 -27 -63 -42 -59 -56 -57 -22 -57 -1241 0
-776 3 -1128 11 -1156 16 -57 55 -104 105 -126 41 -19 77 -19 897 -17 l853 3
41 27 c24 16 49 44 62 70 l21 44 0 1154 0 1154 -21 44 c-13 26 -38 54 -62 70
l-41 27 -855 2 c-748 2 -860 0 -891 -13z m1585 -259 l25 -24 0 -281 0 -281
-25 -24 -24 -25 -679 0 c-672 0 -680 0 -706 21 l-26 20 0 289 0 289 26 20 c26
21 34 21 706 21 l679 0 24 -25z m-548 -858 c25 -24 28 -36 32 -107 2 -50 -2
-92 -9 -111 -22 -53 -41 -59 -186 -59 l-132 0 -26 31 c-24 28 -26 38 -26 117
1 147 20 163 197 160 119 -3 123 -4 150 -31z m544 -5 c28 -31 29 -37 29 -123
0 -87 -1 -92 -29 -120 l-29 -29 -131 0 c-123 0 -131 1 -158 24 -26 23 -28 30
-31 118 -3 84 -2 96 19 121 32 42 52 47 182 44 l119 -2 29 -33z m-1100 15 c30
-23 39 -56 39 -142 0 -82 -1 -88 -29 -116 -29 -29 -29 -29 -156 -29 -127 0
-127 0 -156 29 -28 28 -29 34 -29 116 0 86 9 119 39 142 22 17 270 17 292 0z
m10 -476 c28 -29 29 -32 29 -129 0 -100 0 -100 -31 -126 -29 -25 -36 -26 -154
-26 -118 0 -125 1 -154 26 -31 26 -31 26 -31 126 0 97 1 100 29 129 29 29 29
29 156 29 127 0 127 0 156 -29z m541 0 c30 -27 33 -34 36 -105 5 -93 -1 -121
-35 -152 -25 -23 -32 -24 -155 -24 l-130 0 -29 29 c-28 28 -29 33 -29 121 0
146 16 159 192 160 116 0 118 0 150 -29z m544 -5 l34 -34 0 -316 c0 -344 -2
-360 -55 -384 -15 -7 -73 -12 -140 -12 -113 0 -115 1 -147 29 l-33 29 -3 327
-3 326 35 35 34 34 122 0 122 0 34 -34z m-1087 -462 c31 -26 31 -26 31 -126 0
-97 -1 -100 -29 -129 -29 -29 -29 -29 -156 -29 -127 0 -127 0 -156 29 -28 29
-29 32 -29 129 0 100 0 100 31 126 29 25 36 26 154 26 118 0 125 -1 154 -26z
m544 2 c31 -29 41 -74 35 -163 -4 -59 -7 -69 -36 -94 -32 -28 -35 -29 -148
-29 -122 0 -163 11 -184 49 -5 11 -10 61 -10 111 0 88 1 93 29 121 l29 29 130
0 c122 0 130 -1 155 -24z"/>
<path d="M4380 2330 c-65 -39 -84 -80 -88 -191 -6 -136 3 -182 41 -226 80 -91
216 -80 274 22 20 35 23 54 23 163 0 139 -14 182 -72 223 -46 33 -131 37 -178
9z m130 -106 c23 -22 22 -227 -2 -250 -21 -22 -64 -21 -88 1 -18 16 -20 31
-20 124 0 58 4 111 8 117 23 34 71 37 102 8z"/>
<path d="M1367 2332 c-15 -17 -17 -67 -17 -520 0 -442 2 -502 16 -516 13 -13
43 -16 173 -16 140 0 160 2 174 18 15 17 17 67 17 519 0 472 -1 501 -18 516
-16 14 -43 17 -174 17 -137 0 -157 -2 -171 -18z"/>
<path d="M1910 2070 c-19 -19 -20 -33 -20 -384 0 -332 2 -366 18 -385 16 -21
24 -22 182 -19 164 3 164 3 177 28 10 19 13 113 13 373 0 345 -3 379 -34 399
-6 4 -80 8 -163 8 -140 0 -155 -2 -173 -20z"/>
<path d="M816 1738 c-13 -19 -16 -57 -16 -218 0 -161 3 -199 16 -218 15 -21
21 -22 173 -22 120 0 162 3 177 14 18 13 19 28 19 224 0 162 -3 213 -14 225
-11 15 -37 17 -177 17 -157 0 -163 -1 -178 -22z"/>
</g>
</svg>
